<?xml version="1.0" encoding="UTF-8" standalone="no"?>
<!-- Created with Inkscape (http://www.inkscape.org/) -->

<svg
   version="1.1"
   id="svg1"
   width="863.38879"
   height="303.78641"
   viewBox="0 0 863.38879 303.78641"
   xml:space="preserve"
   xmlns="http://www.w3.org/2000/svg"
   xmlns:svg="http://www.w3.org/2000/svg"><defs id="defs1">
    <linearGradient id="goldGradient" x1="0%" y1="0%" x2="100%" y2="100%">
      <stop offset="0%" stop-color="#f5e6a8"/>
      <stop offset="40%" stop-color="#d4af37"/>
      <stop offset="100%" stop-color="#7a5c18"/>
    </linearGradient>
  </defs><path
     fill="url(#goldGradient)"
     d="m 0.27357412,302.39467 c -0.47308,-0.76546 -0.31691,-2.11546 0.34704,-3 0.66394998,-0.88455 2.76656998,-5.20826 4.67248998,-9.60826 15.9491999,-36.82039 24.1381999,-54.91611 25.4831399,-56.31167 1.23565,-1.28216 36.20972,-1.72331 158.559516,-2 86.3358,-0.19525 156.9741,0.0417 156.974,0.52647 -2e-4,1.69487 -8.7179,8.2307 -14.6668,10.99608 -5.9345,2.75869 -7.498,2.79639 -143.3019,3.45578 l -137.301916,0.66667 -3.62163,6.66667 c -1.99189,3.66666 -3.65602,7.41666 -3.69807,8.33333 -0.0607,1.32307 28.30447,1.66644 137.590216,1.66557 149.3824,-10e-4 146.6852,0.11916 165.4184,-7.38026 11.0959,-4.44199 25.7113,-15.6577 31.8067,-24.40812 2.7289,-3.91755 6.9024,-11.71755 9.2744,-17.33333 3.6253,-8.58287 4.3277,-11.94689 4.4066,-21.10296 0.1045,-12.12732 -1.5798,-15.78318 -9.8719,-21.42696 -9.0399,-6.15282 -8.6287,-6.12933 -123.3675,-7.04881 -116.75001,-0.93561 -123.36839,-1.3043 -143.568,-7.9977 -32.293406,-10.70083 -40.295766,-38.30821 -22.333516,-77.048501 9.352286,-20.17064 23.070166,-37.25338 40.568166,-50.51911 19.58795,-14.85019 48.08135,-24.1378492 82.72545,-26.9649792 8.7676,-0.71549 82.9912,-1.60696996 164.9412,-1.98106996 123.7137,-0.56475 149,-0.3781 149,1.09988996 0,1.53975 -4.5714,12.2343892 -11.5636,27.0524792 l -2.0162,4.27281 -158.2101,0.47953 c -157.1551,0.47632 -158.2901,0.49889 -170.2101,3.38448 -30.61183,7.41051 -52.27658,26.44162 -56.70936,49.81557 -3.39172,17.884481 6.41578,27.742961 31.37604,31.539121 5.63782,0.85745 52.45202,1.74755 118.23312,2.24803 59.8949,0.4557 112.3949,1.33185 116.6667,1.94701 42.8078,6.16459 59.3802,21.45426 57.4117,52.96793 -1.899,30.40154 -19.3201,65.61792 -44.483,89.92182 -16.7668,16.19435 -33.4284,25.50205 -55.8179,31.18161 -27.804,7.05307 -33.9666,7.27742 -200.26526,7.29052 -105.263346,0.008 -153.85861588,-0.4258 -154.44812588,-1.37964 z M 432.97796,302.11974 c 0,-1.88387 9.0872,-24.52105 22.5741,-56.24646 8.523,-20.04872 16.6358,-39.63088 33.7323,-81.42021 l 7.0912,-17.33333 113.30039,-0.66667 113.30033,-0.66667 7.6055,-3.73478 c 9.36973,-4.60114 13.32773,-9.17283 20.05693,-23.16677 8.3647,-17.39484 7.2123,-25.633591 -4.329,-30.949141 -4.2309,-1.94858 -31.02103,-2.21157 -286.86025,-2.81598 -275.1337,-0.64998 -282.2638,-0.73021 -285,-3.20665 -5.51551,-4.99181 -2.6328,-12.78703 6.5269,-17.6494 4.5058,-2.3919 14.5012,-2.47728 289.9999,-2.47728 h 285.33345 l 7.4209,3.00384 c 13.8553,5.60838 18.4926,14.28237 15.9792,29.88899 -2.602,16.157131 -15.49,36.886491 -28.5899,45.984561 -4.0566,2.81744 -7.3985,5.65417 -7.4263,6.30384 -0.078,1.81647 10.9117,-0.10026 22.0908,-3.85296 19.2436,-6.45985 33.2234,-18.66959 42.0971,-36.7669 5.5458,-11.310301 7.0411,-15.850611 9.1025,-27.637511 3.1461,-17.99031 -5.8575,-32.35135 -24.2474,-38.67498 -16.6284,-5.71792 -21.0056,-5.92542 -137.42693,-6.51486 -66.51533,-0.33677 -111.66672,-1.0604 -111.66672,-1.78967 0,-2.38025 12.25,-29.1586492 14.0053,-30.6153892 1.2839,-1.06560996 33.89559,-1.33111996 116.88772,-0.95166996 125.14853,0.5722 121.26593,0.34957 145.22113,8.32738996 34.6181,11.5288592 49.0703,36.5447792 41.7989,72.3515292 -3.2121,15.81757 -6.7638,26.356821 -13.9604,41.426241 -21.4716,44.96019 -55.3024,68.81915 -109.2859,77.07309 -13.26763,2.02858 -27.36903,2.393 -104.66673,2.7049 -49.13333,0.19825 -89.73972,0.37076 -90.23642,0.38335 -0.4967,0.0126 -2.7028,4.67288 -4.9024,10.35621 -2.1996,5.68334 -7.0939,17.23334 -10.8762,25.66667 -3.7824,8.43334 -9.8531,22.83334 -13.4905,32 -3.6374,9.16667 -8.3738,20.41667 -10.5254,25 l -3.9119,8.33334 h -33.3619 c -25.8016,0 -33.3616,-0.3777 -33.3603,-1.66667 z"
     id="path1-0" /></svg>
