<?xml version="1.0" encoding="UTF-8"?>
<svg xmlns="http://www.w3.org/2000/svg" width="960" height="276" viewBox="0 0 339 98">
  <defs>
    <linearGradient id="goldGradient" x1="0%" y1="0%" x2="100%" y2="100%">
      <stop offset="0%" stop-color="#f5e6a8"/>
      <stop offset="40%" stop-color="#d4af37"/>
      <stop offset="100%" stop-color="#7a5c18"/>
    </linearGradient>
  </defs>
  <path d="m 165.40038,257.56031 c -1.48398,-0.54566 -1.67726,-1.8636 -0.69319,-4.72689 1.35334,-3.93775 7.57824,-18.729 11.76691,-27.95989 l 0.8104,-1.78593 h -1.92529 c -2.36794,0 -4.35686,-0.56164 -5.21186,-1.47175 -0.49739,-0.52945 -0.64592,-0.97609 -0.64592,-1.94233 0,-1.56637 0.89613,-3.01086 2.80292,-4.5181 1.60641,-1.26979 2.50252,-1.56015 3.06843,-0.99424 0.46815,0.46816 0.27939,0.92345 -1.18429,2.85647 -0.47805,0.63134 -0.83378,1.33172 -0.79051,1.55639 0.12414,0.64461 1.35226,1.08369 3.09994,1.10829 1.57121,0.0221 2.92538,-0.48462 2.92538,-1.09471 0,-0.39791 12.99518,-26.61497 16.91703,-34.12918 1.93675,-3.71079 4.4733,-8.59235 5.63677,-10.84792 1.16348,-2.25557 2.35256,-4.3094 2.64241,-4.56406 0.58013,-0.50971 2.15557,-0.61321 3.21319,-0.21111 1.55996,0.5931 1.58925,0.50817 -4.30557,12.48476 -3.03412,6.16446 -7.06826,14.48233 -8.96475,18.48415 -1.8965,4.00183 -4.58318,9.62753 -5.9704,12.50157 -1.38723,2.87403 -2.41977,5.22552 -2.29453,5.22552 1.14207,0 8.66825,-3.91242 13.10189,-6.8109 11.71117,-7.65615 22.36098,-19.24098 27.6692,-30.09847 3.7284,-7.62612 3.83026,-12.5624 0.31895,-15.45672 -3.02174,-2.49078 -10.61297,-2.40292 -20.9751,0.24277 -7.13064,1.82061 -16.42814,5.92081 -23.6818,10.44366 -8.08036,5.03833 -15.66057,12.02246 -19.82281,18.26403 -2.16116,3.24083 -2.88002,5.02164 -2.90738,7.20247 -0.0217,1.73213 0.0419,1.97676 0.68007,2.61626 1.08012,1.0823 2.83692,1.15391 5.45829,0.22251 2.21006,-0.78525 2.96579,-0.74593 2.96579,0.15431 0,0.87994 -0.449,1.49783 -1.72772,2.37762 -2.64465,1.81956 -6.19695,2.071 -8.87286,0.62804 -3.87961,-2.09205 -4.48434,-6.84471 -1.6053,-12.61622 4.5993,-9.22002 15.43516,-18.56293 29.53609,-25.46664 8.18258,-4.00614 15.83363,-6.53392 24.49992,-8.09439 4.54121,-0.8177 13.10066,-0.88833 15.31987,-0.12643 3.35531,1.15196 5.40898,2.75712 6.61757,5.17235 0.88474,1.76803 1.32682,4.7801 1.05341,7.17732 -0.28849,2.52945 -0.39847,3.01342 -1.35962,5.983 -3.23895,10.00708 -14.7517,23.83123 -26.29825,31.57812 -7.28617,4.88849 -13.01966,7.81575 -19.30509,9.85631 -2.2577,0.73296 -2.69236,0.96942 -3.11017,1.69192 -1.0573,1.82836 -8.96347,19.29114 -13.32619,29.43426 -1.22541,2.84901 -2.42653,5.32885 -2.66915,5.51075 -0.447,0.33511 -1.73097,0.40987 -2.45668,0.14303 z m -226.44414,-1.88747 c -2.74266,-0.98316 -3.947071,-2.52324 -3.62949,-4.64102 0.661615,-4.41197 9.312938,-12.46833 20.429087,-19.02415 6.783067,-4.00035 15.709304,-8.32653 24.135548,-11.69748 2.72913,-1.0918 5.103869,-1.98509 5.277196,-1.98509 0.888517,0 -0.06522,-1.58581 -1.493523,-2.48334 -2.546132,-1.59995 -6.721554,-2.43716 -17.246263,-3.45802 -16.665303,-1.61648 -18.397946,-1.86587 -21.270002,-3.06151 -3.685262,-1.53418 -5.176026,-3.55489 -5.180818,-7.02255 -0.0031,-2.27711 0.494064,-4.03109 1.983276,-6.99629 2.048875,-4.07955 5.620455,-8.49571 10.317264,-12.75699 9.846266,-8.93325 24.298678,-16.96737 37.173957,-20.66508 4.0823611,-1.17243 5.3237294,-1.35326 9.2604166,-1.34894 3.3679799,0.004 4.0227381,0.078 5.3619394,0.6086 2.0064221,0.79495 3.0439556,1.70398 3.8014096,3.3306 1.989822,4.27312 -0.776385,11.10471 -6.9867584,17.25492 -4.9506747,4.90271 -12.1106962,8.9329 -13.8182572,7.77794 -0.647405,-0.4379 -0.03782,-1.06771 2.540194,-2.62448 6.0852671,-3.67468 11.6210161,-9.32267 14.1335486,-14.42011 2.1022953,-4.26515 2.0421641,-6.82279 -0.1892954,-8.05155 -4.3402171,-2.38995 -19.9691342,2.24506 -32.3009602,9.57937 -9.620763,5.72192 -18.896113,14.25302 -22.890859,21.05409 -1.529247,2.60356 -2.036013,3.96602 -2.204326,5.92642 -0.115522,1.34553 -0.03618,1.81238 0.476659,2.80483 0.507835,0.98276 0.915499,1.33995 2.33504,2.04592 2.129386,1.059 4.06223,1.41487 14.022916,2.5819 9.624398,1.12763 10.910484,1.30959 15.19456,2.14971 5.782187,1.13391 9.712414,2.90827 11.064166,4.99508 0.328065,0.50646 0.690725,0.92232 0.80591,0.92412 0.1151854,0.002 1.4248729,-0.4219 2.9104166,-0.94156 1.4855438,-0.51966 4.9036449,-1.5963 7.5957803,-2.39253 4.1096326,-1.21548 5.2130992,-1.65442 6.8791667,-2.73641 2.54918,-1.6555 4.0122774,-2.12939 6.5576844,-2.12396 2.354519,0.005 3.748325,0.60972 4.716359,2.04619 0.504171,0.74814 0.615529,0.8019 0.914596,0.44155 0.979776,-1.18056 3.071549,-1.5194 3.950944,-0.64001 0.727554,0.72756 0.681432,0.96272 -0.544864,2.77813 -3.029451,4.48479 -4.440348,8.86761 -3.24078,10.06718 0.689983,0.68998 3.441419,0.39412 5.902311,-0.63468 3.058433,-1.27861 6.981311,-3.5864 10.200054,-6.00058 2.686061,-2.01465 3.429717,-2.71169 5.452635,-5.11085 0.582995,-0.69142 0.893739,-0.83461 1.811239,-0.83461 1.129537,0 2.644405,0.80039 2.644405,1.3972 0,0.16656 -0.466779,1.25978 -1.037287,2.42938 -1.365798,2.80002 -2.901552,6.99384 -3.105204,8.47963 -0.137952,1.00648 -0.09396,1.18754 0.288544,1.18754 0.830461,0 2.898981,-1.6639 6.458365,-5.19504 3.468619,-3.44109 3.526607,-3.5178 3.310464,-4.37922 -0.557452,-2.22169 0.141898,-4.6427 1.621093,-5.61191 1.024747,-0.67144 2.940139,-0.55552 3.720843,0.22518 0.851076,0.85108 0.817403,1.72699 -0.147949,3.84849 l -0.782561,1.71979 0.808186,0.69593 c 1.073176,0.92412 2.824339,1.14942 4.844362,0.62327 2.670095,-0.69547 5.97802,-2.28105 8.425941,-4.03878 2.931217,-2.10476 4.684248,-2.92019 6.739804,-3.13504 4.460066,-0.46616 6.918862,1.95533 6.213456,6.1192 -0.147918,0.87313 -0.359059,1.81455 -0.469204,2.09206 -0.528431,1.33136 7.38363,-0.53593 11.258848,-2.65715 0.949441,-0.51971 2.47003,-1.65651 3.37908,-2.52622 1.52178,-1.45593 1.72107,-1.56646 2.51354,-1.3941 1.315777,0.28618 1.905697,0.55153 2.310507,1.0393 0.32526,0.39191 0.17569,0.83258 -1.24418,3.66558 -0.88764,1.77106 -1.862577,4.03633 -2.166517,5.03392 -0.63488,2.08376 -0.74423,4.4039 -0.20756,4.4039 1.02219,0 5.769107,-3.77436 9.238537,-7.34573 1.99994,-2.05871 2.03751,-2.12193 1.78313,-3.00104 -0.41268,-1.42618 0.15087,-3.605 1.20511,-4.65925 0.75707,-0.75707 1.0443,-0.86898 2.23038,-0.86898 1.1101,0 1.48722,0.12582 2.04298,0.68157 0.57082,0.57082 0.65884,0.85105 0.54168,1.72453 -0.0769,0.57363 -0.50812,1.6168 -0.95818,2.31816 -1.05993,1.65176 -1.05086,2.27884 0.0416,2.87572 0.7168,0.39163 1.49833,0.46693 4.69635,0.45249 4.08609,-0.0185 6.06409,-0.32654 11.09224,-1.7277 2.66407,-0.74238 4.2488,-0.94971 4.59707,-0.60144 0.64039,0.6404 -1.76497,2.1344 -5.38127,3.34237 -3.91891,1.30905 -6.15727,1.64983 -10.8372,1.64988 -4.32808,5e-5 -4.37928,-0.007 -5.95313,-0.79762 l -1.5875,-0.79768 -2.91041,2.80012 c -5.0396,4.84862 -8.22945,6.92357 -10.715207,6.97008 -1.8883,0.0353 -3.027427,-0.4658 -3.767795,-1.65755 -0.838973,-1.35046 -0.788861,-4.43614 0.115509,-7.11261 0.356489,-1.05503 0.626088,-1.91823 0.59911,-1.91823 -0.02698,0 -0.8353,0.3565 -1.796271,0.79222 -2.598235,1.1781 -6.384918,2.08065 -9.035977,2.15371 l -2.291795,0.0632 -0.928039,1.39815 c -1.24486,1.87546 -3.518334,3.90973 -5.48921,4.91167 -1.883913,0.95772 -4.785541,1.27385 -6.770153,0.73758 -1.75946,-0.47543 -3.337345,-2.15229 -3.58609,-3.81104 -0.234597,-1.5644 0.182746,-3.58394 1.058262,-5.12098 0.352284,-0.61847 0.597671,-1.12448 0.545304,-1.12448 -0.05237,0 -0.68347,0.29546 -1.402451,0.65658 -1.96878,0.98887 -4.652547,1.53858 -6.704425,1.37326 -1.840279,-0.14826 -3.615325,-0.73753 -4.083991,-1.35576 -0.220979,-0.29151 -0.675463,0.0777 -2.20908,1.79455 -2.443584,2.73556 -5.667148,5.61682 -7.583548,6.77828 -2.794692,1.69376 -5.720589,1.33522 -6.577331,-0.80599 -0.601647,-1.50366 -0.478193,-4.55449 0.282007,-6.96903 0.112508,-0.35734 -0.349385,-0.10973 -1.525822,0.81796 -3.853155,3.03846 -8.428957,5.74506 -11.564974,6.84072 -2.608527,0.91137 -5.799248,0.92955 -7.476488,0.0426 -1.960035,-1.03649 -2.461281,-3.2948 -1.641299,-7.39471 0.16321,-0.81606 0.07655,-0.76434 -2.058682,1.22861 -2.662274,2.48486 -5.7493864,4.88302 -7.3884384,5.73954 -1.5128175,0.79055 -4.0331594,0.87918 -5.1011808,0.17939 -1.2768609,-0.83663 -1.648307,-1.7056 -1.6192284,-3.78804 0.022864,-1.6374 0.1688816,-2.18907 1.0728473,-4.05336 0.5755096,-1.18691 1.0085236,-2.19586 0.9622534,-2.24213 -0.089277,-0.0893 -9.7341873,3.1706 -10.3778585,3.5076 -0.2747369,0.14385 -0.3629532,0.62963 -0.3211343,1.7684 0.3118646,8.49238 -11.5477953,20.58477 -28.6688233,29.2314 -8.079372,4.08033 -13.348138,5.76587 -18.653125,5.96736 -2.805622,0.10656 -3.522082,0.0486 -4.723316,-0.38199 z m 9.485816,-3.987 c 5.347948,-1.80211 13.613382,-6.01143 19.446875,-9.90367 5.996519,-4.00101 11.218747,-8.54258 14.482581,-12.59493 1.686187,-2.09355 3.480548,-5.53722 3.763096,-7.22198 0.194646,-1.16063 0.77509,-1.29395 -4.884219,1.12187 -10.485833,4.47615 -20.713411,10.04141 -28.839583,15.69284 -6.050509,4.20789 -10.657584,8.61979 -12.264592,11.74501 -0.516939,1.00531 -0.566356,2.09224 -0.104678,2.3024 0.181901,0.0828 1.402291,0.11059 2.711979,0.0617 1.948451,-0.0727 2.982358,-0.29137 5.688541,-1.20328 z M 72.928513,223.8056 c 1.041647,-0.52148 4.894791,-4.03778 4.894791,-4.46689 0,-0.12092 -0.151466,-0.21986 -0.336591,-0.21986 -1.113634,0 -3.367575,-2.91639 -3.367575,-4.35733 0,-0.57879 -0.06555,-0.63223 -0.463021,-0.37749 -0.777927,0.49857 -2.921521,3.49231 -3.667858,5.12252 -0.387851,0.84718 -0.762627,2.04997 -0.832836,2.67286 -0.108372,0.96148 -0.02373,1.23646 0.560363,1.82055 0.772304,0.77231 1.351832,0.73725 3.212727,-0.19436 z M 6.3858056,221.73125 c 2.410274,-1.45915 9.6807944,-7.64041 10.1196084,-8.6035 0.229112,-0.50285 0.186876,-0.72767 -0.221479,-1.17889 -0.423412,-0.46787 -0.728718,-0.53897 -1.897935,-0.44201 -2.706071,0.22441 -6.8299744,3.76545 -8.6752484,7.44911 -0.9267891,1.85011 -1.1862931,3.3387 -0.5817173,3.3369 0.181901,-5.5e-4 0.7474479,-0.25327 1.2567713,-0.56161 z M 79.142283,216.0865 c 0.136151,-0.35811 0.324922,-1.23438 0.419491,-1.94728 0.208108,-1.5688 -0.169716,-2.42871 -1.067117,-2.42871 -0.714419,0 -1.729686,1.11577 -1.729686,1.90091 0,0.92062 1.340218,3.12618 1.899639,3.12618 0.126569,0 0.341521,-0.293 0.477673,-0.6511 z m 133.949247,11.50191 c -0.76405,-0.46585 -0.8599,-0.65633 -0.8599,-1.70901 0,-1.63462 0.61311,-3.04933 3.44589,-7.95118 3.13705,-5.42836 3.93966,-6.66197 5.10562,-7.84734 1.6489,-1.67635 3.84126,-1.97998 4.46185,-0.61794 0.26162,0.5742 0.12061,0.93708 -1.23453,3.17689 -0.84144,1.39076 -1.48329,2.57525 -1.42632,2.63221 0.057,0.057 0.87634,-0.41934 1.82084,-1.05844 3.84172,-2.59954 6.83295,-2.57766 7.67504,0.0561 0.17808,0.55697 0.62935,1.34009 1.00282,1.74027 0.55371,0.59331 0.90187,0.72546 1.88631,0.71599 0.664,-0.006 1.65115,-0.17005 2.19366,-0.3637 1.69889,-0.60642 4.91124,-2.57783 6.08759,-3.73593 3.72322,-3.66549 8.02616,-5.02543 11.06007,-3.49552 1.71977,0.86723 2.45822,2.39111 2.27576,4.69635 -0.0749,0.94588 -0.31657,2.22494 -0.53711,2.84235 -0.39955,1.11853 -0.39861,1.12315 0.2638,1.2894 1.7049,0.4279 7.08733,-0.51886 12.2936,-2.16242 4.03946,-1.27521 5.40532,-1.40929 5.40532,-0.53061 0,0.96278 -5.83923,3.40957 -10.84792,4.54556 -1.01864,0.23104 -3.45942,0.46767 -5.42395,0.52586 l -3.57188,0.1058 -1.33059,1.647 c -3.78903,4.69007 -9.28219,6.30487 -12.73485,3.74361 -1.73727,-1.28874 -2.15265,-4.49177 -0.90074,-6.94571 0.58785,-1.15228 0.48852,-1.33148 -0.37589,-0.67816 -0.93444,0.70624 -3.8245,1.43839 -5.65403,1.43234 -2.92165,-0.01 -4.47794,-1.00041 -5.08212,-3.23533 -0.14752,-0.54571 -0.41345,-0.99219 -0.59096,-0.99219 -0.61876,0 -3.77171,2.25736 -5.66615,4.05669 -1.78119,1.69178 -3.77428,4.43213 -5.04574,6.93752 -0.84971,1.67437 -2.18492,2.10054 -3.69549,1.17952 z m 32.91446,-3.75364 c 0.67366,-0.31666 2.04476,-1.40384 3.0469,-2.41596 l 1.82205,-1.84022 -1.10134,-0.94271 c -1.15004,-0.98439 -2.06362,-2.62069 -2.09392,-3.75037 -0.0162,-0.60258 -0.14404,-0.5246 -1.43668,0.87595 -2.53959,2.75162 -4.28669,7.08703 -3.3236,8.24748 0.46954,0.56576 1.65474,0.49888 3.08659,-0.17417 z m 6.97382,-9.22489 c 0.41121,-1.93769 0.11152,-2.89937 -0.90351,-2.89937 -0.80301,0 -1.74467,1.13374 -1.74467,2.10055 0,0.38845 0.37035,1.29025 0.823,2.00401 0.73647,1.16128 0.85789,1.25002 1.15481,0.84396 0.1825,-0.24958 0.48416,-1.17169 0.67037,-2.04915 z" transform="translate(64.722932,-160.48181)" fill="url(#goldGradient)"/>
</svg>
