<?xml version="1.0" encoding="UTF-8" standalone="no"?>
<!-- Created with Inkscape (http://www.inkscape.org/) -->

<svg
   version="1.1"
   id="svg1"
   width="975.99323"
   height="429.25574"
   viewBox="0 0 975.99323 429.25574"
   xml:space="preserve"
   xmlns="http://www.w3.org/2000/svg"
   xmlns:svg="http://www.w3.org/2000/svg"><defs id="defs1">
    <linearGradient id="goldGradient" x1="0%" y1="0%" x2="100%" y2="100%">
      <stop offset="0%" stop-color="#f5e6a8"/>
      <stop offset="40%" stop-color="#d4af37"/>
      <stop offset="100%" stop-color="#7a5c18"/>
    </linearGradient>
  </defs><g
     id="g1"
     transform="translate(-359.05523,-45.880921)"><path
       fill="url(#goldGradient)"
       d="m 359.9696,468.73534 c 0.5029,-3.52073 1.47349,-7.00132 2.15687,-7.73466 0.7491,-0.80386 15.64478,-1.50887 37.51086,-1.77538 31.07622,-0.37876 36.61079,-0.74999 38.66038,-2.5931 3.26473,-2.93584 2.37069,-7.31129 -1.72536,-8.44395 -1.83333,-0.50697 -15.21313,-0.98156 -29.73288,-1.05466 -21.76298,-0.10956 -27.14898,-0.52016 -30.66667,-2.33781 -6.9084,-3.5697 -7.75543,-5.4511 -7.19415,-15.97933 0.61574,-11.54975 3.51899,-17.1344 10.92703,-21.01906 5.03374,-2.6396 7.71895,-2.82106 47.8008,-3.23027 l 42.46746,-0.43356 -0.95155,5.7669 c -0.52335,3.17179 -1.55717,6.51689 -2.29739,7.43356 -1.0126,1.25399 -9.70249,1.66666 -35.09578,1.66666 -18.56246,0 -35.20698,0.55397 -36.98781,1.23104 -3.75512,1.42769 -5.33175,5.76968 -3.12803,8.6145 1.24314,1.6048 7.0806,2.06445 31.52564,2.4824 18.31281,0.3131 31.40355,1.10597 33.6028,2.03521 1.98154,0.83726 4.57633,3.40487 5.76618,5.70579 1.96209,3.79427 1.97835,5.0908 0.17478,13.93492 -2.38036,11.6725 -4.74403,15.626 -11.28851,18.88127 -4.41861,2.19786 -9.3966,2.48925 -48.68048,2.84953 l -43.75856,0.40133 z m 100.60275,5.4398 c 0,-0.45404 4.37811,-6.30405 9.72914,-13 5.35103,-6.69595 14.30807,-17.9001 19.90454,-24.89811 5.59647,-6.99801 12.89075,-16.41218 16.2095,-20.92038 7.27335,-9.88016 10.30253,-11.00454 29.67577,-11.0152 10.93022,-0.006 14.05358,0.43937 16.31089,2.3259 1.53556,1.28333 7.24863,12.83333 12.69571,25.66667 5.44708,12.83333 11.45718,26.80044 13.35578,31.03801 5.28212,11.78942 5.4097,11.62865 -9.22771,11.62865 h -12.67972 l -3.65362,-7.66666 -3.65361,-7.66667 -26.01252,-0.36045 -26.01252,-0.36045 -5.84549,8.02712 -5.84549,8.02711 h -12.47533 c -6.86142,0 -12.47532,-0.37149 -12.47532,-0.82554 z m 80.78525,-31.66936 c 1.03877,-2.70698 -8.32573,-22.17176 -10.66683,-22.17176 -2.37404,0 -19.70013,21.18609 -18.67826,22.83951 0.39447,0.63827 7.00064,1.16049 14.68038,1.16049 10.59864,0 14.1322,-0.44053 14.66471,-1.82824 z m 64.7888,31.33853 c -0.9677,-0.61354 -6.86028,-13.65436 -13.09473,-28.97958 -14.25325,-35.03663 -15.29347,-37.88006 -14.39158,-39.33935 0.40497,-0.65525 6.09492,-1.19137 12.64434,-1.19137 h 11.90807 l 4.1157,9.00001 c 2.2637,4.95 7.0901,16.59362 10.7253,25.87473 3.6352,9.2811 7.4166,17.18445 8.4031,17.563 2.4066,0.92353 12.2371,-10.08569 36.1081,-40.43773 4.3256,-5.50001 8.4969,-10.44082 9.2695,-10.97959 1.925,-1.34232 21.7513,-1.28378 22.586,0.0667 0.3695,0.59791 -2.9057,5.54791 -7.2782,11 -4.3725,5.4521 -14.6894,18.58472 -22.9265,29.1836 -8.2371,10.59888 -16.9963,21.54888 -19.465,24.33333 l -4.4885,5.06264 -16.1781,-0.0204 c -8.898,-0.0112 -16.9699,-0.52241 -17.9375,-1.13596 z m 88.0427,-0.85244 c -2.8722,-1.24793 -5.07,-3.54799 -6.3754,-6.67222 -2.139,-5.11948 -2.3901,-3.0568 4.1178,-33.82276 1.1445,-5.41042 2.8932,-11.78133 3.886,-14.15757 2.355,-5.63631 9.3079,-10.84172 16.7816,-12.56377 7.8338,-1.80504 76.4474,-1.85043 82.9126,-0.0548 6.4226,1.78379 10.3939,6.88573 10.3939,13.35311 0,5.02176 -5.508,32.72387 -8.1242,40.86022 -1.7512,5.4462 -9.0292,11.85451 -15.506,13.65314 -3.0095,0.83576 -20.866,1.38062 -44.3698,1.35388 -31.074,-0.0354 -40.2537,-0.44465 -43.7165,-1.94919 z m 78.8673,-17.33241 c 2.2845,-2.28449 2.615,-3.23859 5.4537,-15.74151 2.6408,-11.63137 2.628,-16.41485 -0.047,-17.44128 -1.16,-0.44513 -14.267,-0.80932 -29.1267,-0.80932 -24.1006,0 -27.247,0.25347 -29.1422,2.34766 -3.2072,3.54393 -8.2545,29.28371 -6.2224,31.7323 2.4065,2.89958 56.1769,2.81963 59.0844,-0.0879 z m 67.0431,15.67456 c -4.8323,-9.45201 -27.5272,-63.79946 -27.5272,-65.91949 0,-1.85484 25.0366,-1.29589 26.2546,0.58615 0.5933,0.91667 5.6129,12.46667 11.1546,25.66667 8.6455,20.59293 10.4847,24 12.9557,24 2.0791,0 6.8047,-4.81906 16.9974,-17.33333 7.7647,-9.53334 17.1977,-21.08334 20.9623,-25.66667 l 6.8447,-8.33334 h 11.082 c 7.07,0 11.082,0.52314 11.082,1.44498 0,2.12589 -51.5943,66.24407 -54.5988,67.85207 -1.4076,0.75329 -9.4832,1.36962 -17.9459,1.36962 h -15.3868 z m 125.8061,1.95785 c 0,-0.99696 1.218,-7.47032 2.7067,-14.38525 1.4887,-6.91493 4.5104,-21.51512 6.715,-32.44487 2.2047,-10.92975 4.3221,-20.37975 4.7054,-21 1.0258,-1.65982 90.8353,-1.40102 96.8855,0.27919 7.4836,2.07827 9.532,6.13189 8.5806,16.98058 -1.4853,16.9357 -6.5026,25.7348 -16.9265,29.68462 -3.2308,1.22424 -15.5047,1.99797 -39.8921,2.51475 l -35.2254,0.74646 -2.1237,9.33333 -2.1237,9.33334 -11.6509,0.38524 c -9.1211,0.3016 -11.6509,-0.008 -11.6509,-1.42739 z m 91.6596,-35.95785 c 3.726,-4.00477 5.1962,-11.96322 2.6072,-14.11197 -1.4122,-1.17198 -9.8404,-1.51013 -31.1019,-1.24783 l -29.1649,0.3598 -1.5692,7.95156 c -0.8631,4.37336 -1.2777,8.42336 -0.9214,9 0.3564,0.57664 13.408,1.04844 29.0036,1.04844 27.6898,0 28.4211,-0.0704 31.1466,-3 z m 30.1801,31.33333 c 0.4675,-3.48333 3.7379,-19.23333 7.2677,-35 l 6.4179,-28.66667 43.904,-0.40999 c 50.5334,-0.4719 56.6042,0.21461 60.6557,6.85909 3.1096,5.0997 3.1947,8.03837 0.5411,18.69178 -4.1349,16.60037 -8.6885,22.19345 -19.6261,24.10576 -2.75,0.48081 -5,1.13288 -5,1.44904 0,0.31616 3.0426,3.73898 6.7613,7.60625 11.484,11.94279 11.5918,11.69807 -5.1552,11.69807 h -14.4878 l -8.5591,-9.91345 -8.5592,-9.91345 -18.2819,-0.0865 -18.2819,-0.0865 -1.3034,5 c -0.7168,2.75 -1.7067,7.25 -2.1997,10 l -0.8965,5 h -12.0234 -12.0234 z m 90.1319,-29.65145 c 1.3546,-0.72496 3.4941,-4.01832 4.7545,-7.31858 3.8646,-10.11927 3.8066,-10.13737 -31.1892,-9.7212 l -30.0958,0.3579 -1.5997,7.98945 c -0.8799,4.3942 -1.3187,8.4442 -0.9752,9 0.9379,1.5175 56.2329,1.22975 59.1054,-0.30757 z m 43.3618,34.43721 c -4.5514,-2.50296 -7.2745,-6.92168 -7.2632,-11.78576 0.016,-6.71922 7.1003,-38.57051 9.6866,-43.54894 2.9714,-5.71987 7.9702,-9.40203 16.0019,-11.7872 8.2343,-2.44531 72.6864,-2.87443 83.4972,-0.55592 11.914,2.5551 13.9519,8.15437 10.1516,27.89206 -5.4706,28.41274 -7.6849,33.50234 -16.6345,38.23497 -5.7898,3.06176 -6.3725,3.09788 -49.316,3.05782 -29.023,-0.0271 -44.3427,-0.52763 -46.1236,-1.50703 z m 80.5282,-16.78576 c 2.7852,-2.30159 8.0413,-21.60939 8.1096,-29.79002 l 0.029,-3.45669 -23.4206,-0.84708 c -24.8818,-0.89992 -38.4697,-0.13274 -40.4365,2.28309 -0.6615,0.81255 -2.5089,7.96208 -4.1054,15.88784 -2.2775,11.30726 -2.559,14.82455 -1.3068,16.33333 1.2985,1.56462 6.8787,1.92286 29.9515,1.92286 25.0409,0 28.6858,-0.27277 31.1794,-2.33333 z M 433.20292,348.27561 c -0.47308,-0.76546 -0.31691,-2.11546 0.34704,-3 0.66395,-0.88455 2.76657,-5.20826 4.67249,-9.60826 15.9492,-36.82039 24.1382,-54.91611 25.48314,-56.31167 1.23565,-1.28216 36.20971,-1.72331 158.55951,-2 86.3358,-0.19525 156.9741,0.0417 156.974,0.52647 -2e-4,1.69487 -8.7179,8.2307 -14.6668,10.99608 -5.9345,2.75869 -7.498,2.79639 -143.3019,3.45578 l -137.30191,0.66667 -3.62163,6.66667 c -1.99189,3.66666 -3.65602,7.41666 -3.69807,8.33333 -0.0607,1.32307 28.30446,1.66644 137.59021,1.66557 149.3824,-10e-4 146.6852,0.11916 165.4184,-7.38026 11.0959,-4.44199 25.7113,-15.6577 31.8067,-24.40812 2.7289,-3.91755 6.9024,-11.71755 9.2744,-17.33333 3.6253,-8.58287 4.3277,-11.94689 4.4066,-21.10296 0.1045,-12.12732 -1.5798,-15.78318 -9.8719,-21.42696 -9.0399,-6.15282 -8.6287,-6.12933 -123.3675,-7.04881 -116.75001,-0.93561 -123.36839,-1.3043 -143.568,-7.9977 -32.29341,-10.70083 -40.29577,-38.30821 -22.33352,-77.0485 9.35229,-20.17064 23.07017,-37.253381 40.56817,-50.519111 19.58795,-14.85019 48.08135,-24.13785 82.72545,-26.96498 8.7676,-0.71549 82.9912,-1.60697 164.9412,-1.98107 123.7137,-0.56475 149,-0.3781 149,1.09989 0,1.53975 -4.5714,12.23439 -11.5636,27.05248 l -2.0162,4.27281 -158.2101,0.47953 c -157.1551,0.47632 -158.2901,0.49889 -170.2101,3.38448 -30.61183,7.41051 -52.27658,26.441621 -56.70936,49.815571 -3.39172,17.88448 6.41578,27.74296 31.37604,31.53912 5.63782,0.85745 52.45202,1.74755 118.23312,2.24803 59.8949,0.4557 112.3949,1.33185 116.6667,1.94701 42.8078,6.16459 59.3802,21.45426 57.4117,52.96793 -1.899,30.40154 -19.3201,65.61792 -44.483,89.92182 -16.7668,16.19435 -33.4284,25.50205 -55.8179,31.18161 -27.804,7.05307 -33.9666,7.27742 -200.26526,7.29052 -105.26334,0.008 -153.85861,-0.4258 -154.44812,-1.37964 z m 432.70438,-0.27493 c 0,-1.88387 9.0872,-24.52105 22.5741,-56.24646 8.523,-20.04872 16.6358,-39.63088 33.7323,-81.42021 l 7.0912,-17.33333 113.3004,-0.66667 113.3003,-0.66667 7.6055,-3.73478 c 9.3697,-4.60114 13.3277,-9.17283 20.0569,-23.16677 8.3647,-17.39484 7.2123,-25.63359 -4.329,-30.94914 -4.2309,-1.94858 -31.021,-2.21157 -286.8602,-2.81598 -275.1337,-0.64998 -282.2638,-0.73021 -285,-3.20665 -5.51551,-4.99181 -2.6328,-12.78703 6.5269,-17.6494 4.5058,-2.3919 14.5012,-2.47728 289.9999,-2.47728 h 285.3334 l 7.4209,3.00384 c 13.8553,5.60838 18.4926,14.28237 15.9792,29.88899 -2.602,16.15713 -15.49,36.88649 -28.5899,45.98456 -4.0566,2.81744 -7.3985,5.65417 -7.4263,6.30384 -0.078,1.81647 10.9117,-0.10026 22.0908,-3.85296 19.2436,-6.45985 33.2234,-18.66959 42.0971,-36.7669 5.5458,-11.3103 7.0411,-15.85061 9.1025,-27.63751 3.1461,-17.99031 -5.8575,-32.351351 -24.2474,-38.674981 -16.6284,-5.71792 -21.0056,-5.92542 -137.4269,-6.51486 -66.5153,-0.33677 -111.6667,-1.0604 -111.6667,-1.78967 0,-2.38025 12.25,-29.15865 14.0053,-30.61539 1.2839,-1.06561 33.8956,-1.33112 116.8877,-0.95167 125.1485,0.5722 121.2659,0.34957 145.2211,8.32739 34.6181,11.52886 49.0703,36.54478 41.7989,72.351531 -3.2121,15.81757 -6.7638,26.35682 -13.9604,41.42624 -21.4716,44.96019 -55.3024,68.81915 -109.2859,77.07309 -13.2676,2.02858 -27.369,2.393 -104.6667,2.7049 -49.1333,0.19825 -89.7397,0.37076 -90.2364,0.38335 -0.4967,0.0126 -2.7028,4.67288 -4.9024,10.35621 -2.1996,5.68334 -7.0939,17.23334 -10.8762,25.66667 -3.7824,8.43334 -9.8531,22.83334 -13.4905,32 -3.6374,9.16667 -8.3738,20.41667 -10.5254,25 l -3.9119,8.33334 h -33.3619 c -25.8016,0 -33.3616,-0.3777 -33.3603,-1.66667 z"
       id="path1" /></g></svg>
